#N canvas 571 78 797 746 12;
#X obj 366 375 line~;
#X obj 289 344 noise~;
#X obj 351 409 *~;
#X obj 307 674 dac~;
#X obj 334 269 bng 15 250 50 0 empty empty empty 17 7 0 10 -262144
-1 -1;
#X floatatom 462 430 5 0 0 0 - - -, f 5;
#X obj 132 446 line;
#X floatatom 111 541 5 0 0 0 - - -, f 5;
#X obj 292 383 *~ 0.9;
#X obj 312 468 bp~ 1000 6;
#X obj 310 543 bp~ 1000 6;
#X obj 312 509 bp~ 1000 6;
#X obj 312 578 bp~ 1000 6;
#X obj 114 348 + 6000;
#X msg 115 390 \$1 \, 50 300;
#X floatatom 219 382 5 0 0 0 - - -, f 5;
#X obj 131 297 random 600;
#X obj 571 466 spigot;
#X floatatom 327 151 5 0 0 0 - - -, f 5;
#X obj 287 181 tgl 15 0 empty empty empty 17 7 0 10 -262144 -1 -1 1
1;
#X obj 333 219 spigot 0;
#X obj 32 147 r random_amount @hv_param 0 5000 0;
#X obj -2 233 r base_frequency @hv_param 60 22000 6000;
#X obj 334 98 r trigger @hv_param 0 1 0;
#X obj 499 365 r filter_res @hv_param 0 500 20;
#X msg 371 341 1 \, 0 250;
#X connect 0 0 2 1;
#X connect 1 0 8 0;
#X connect 2 0 9 0;
#X connect 4 0 25 0;
#X connect 4 0 16 0;
#X connect 5 0 9 2;
#X connect 5 0 11 2;
#X connect 5 0 10 2;
#X connect 5 0 12 2;
#X connect 6 0 7 0;
#X connect 6 0 9 1;
#X connect 6 0 11 1;
#X connect 6 0 10 1;
#X connect 6 0 12 1;
#X connect 8 0 2 0;
#X connect 9 0 11 0;
#X connect 10 0 12 0;
#X connect 11 0 10 0;
#X connect 12 0 3 0;
#X connect 12 0 3 1;
#X connect 13 0 14 0;
#X connect 13 0 15 0;
#X connect 14 0 6 0;
#X connect 16 0 13 0;
#X connect 18 0 20 0;
#X connect 18 0 19 0;
#X connect 19 0 20 1;
#X connect 20 0 4 0;
#X connect 21 0 16 1;
#X connect 22 0 13 1;
#X connect 23 0 18 0;
#X connect 24 0 5 0;
#X connect 25 0 0 0;
#X coords 0 0 5 5 0 0 0;
