#N canvas 0 23 1280 704 10;
#X obj 174 119 line~;
#X msg 174 91 1 0 \, 0 25;
#X obj 172 146 *~;
#X obj 172 178 *~;
#X obj 173 206 *~;
#X obj 105 235 *~;
#X obj 102 283 +~ 100;
#X obj 101 315 phasor~;
#X obj 183 246 noise~;
#X obj 183 277 *~;
#X obj 233 247 *~ 0.133;
#X obj 182 332 lop~ 2000;
#X obj 100 347 +~;
#X obj 99 384 cos~;
#X obj 98 414 *~;
#X obj 103 259 *~ 5000;
#X text 45 259 freq;
#X text 56 414 amp;
#X obj 83 510 bp~ 1800 30, f 13;
#X obj 177 509 bp~ 2300 20, f 13;
#X obj 275 508 bp~ 240 7, f 10;
#X obj 370 505 bp~ 360 5, f 10;
#X obj 460 503 bp~ 40 3, f 9;
#X obj 535 502 bp~ 3000 0.5, f 13;
#X obj 498 399 * 3600;
#X obj 556 397 * 4600;
#X obj 617 399 * 480;
#X obj 665 399 * 720;
#X obj 706 402 * 80;
#X obj 619 304 loadbang;
#X msg 618 331 0.9;
#X obj 618 359 * 1;
#X obj 124 549 *~ 2;
#X obj 274 544 *~ 1.2;
#X obj 371 548 *~ 2.5;
#X obj 459 548 *~ 10;
#X obj 535 550 *~ 2;
#X obj 296 620 bp~ 2500 0.5, f 13;
#X obj 293 703 dac~;
#X obj 268 4 bng 15 250 50 0 empty empty empty 17 7 0 10 -262144 -1
-1;
#X obj 326 119 line~;
#X obj 324 146 *~;
#X obj 324 178 *~;
#X obj 325 206 *~;
#X obj 268 42 t b b;
#X obj 324 64 del 10;
#X msg 326 91 1 0 \, 0 1700;
#X obj 293 251 noise~;
#X obj 293 285 *~ 100;
#X obj 293 319 clip~ -0.3 0.3;
#X obj 395 347 *~;
#X obj 392 372 hip~ 12;
#X obj 451 397 *~, f 5;
#X text 144 62 Impulse;
#X text 346 46 Noise tail;
#X text 373 666 From here above forms the crack of the shot;
#X obj 771 98 line~;
#X obj 771 15 bng 15 250 50 0 empty empty empty 17 7 0 10 -262144 -1
-1;
#X obj 771 53 t b b;
#X msg 771 77 1 0 \, 0 10;
#X obj 770 123 *~;
#X obj 769 150 *~ 10000;
#X obj 769 234 osc~;
#X obj 769 209 *~ 10000;
#X obj 768 179 osc~;
#X obj 725 258 *~;
#X msg 868 70 0;
#X obj 788 285 biquad~;
#X obj 561 7 loadbang;
#X msg 843 233 1.84252 -0.866142 -0.0787402 -0.677165;
#X obj 789 311 *~ 0.1;
#X obj 762 359 bp~ 400 1, f 10;
#X obj 841 359 bp~ 800 1, f 10;
#X obj 918 358 bp~ 1600 1;
#X obj 811 411 *~ 0.5;
#X obj 811 440 clip~ -0.1 0.2;
#X obj 812 468 *~ 5;
#X obj 767 467 *~ 5;
#X obj 814 508 hip~ 30;
#X obj 879 509 bp~ 400 7, f 11;
#X obj 794 579 dac~;
#X obj 296 656 *~ 0.08;
#X obj 794 546 *~ 0.08;
#X connect 0 0 2 0;
#X connect 0 0 2 1;
#X connect 1 0 0 0;
#X connect 2 0 3 0;
#X connect 2 0 3 1;
#X connect 3 0 4 0;
#X connect 3 0 4 1;
#X connect 4 0 5 0;
#X connect 4 0 5 1;
#X connect 4 0 10 0;
#X connect 4 0 14 1;
#X connect 5 0 15 0;
#X connect 6 0 7 0;
#X connect 7 0 12 0;
#X connect 8 0 9 0;
#X connect 9 0 11 0;
#X connect 10 0 9 1;
#X connect 11 0 12 1;
#X connect 12 0 13 0;
#X connect 13 0 14 0;
#X connect 14 0 18 0;
#X connect 14 0 19 0;
#X connect 14 0 20 0;
#X connect 14 0 21 0;
#X connect 14 0 22 0;
#X connect 14 0 23 0;
#X connect 15 0 6 0;
#X connect 18 0 32 0;
#X connect 19 0 32 0;
#X connect 20 0 33 0;
#X connect 21 0 34 0;
#X connect 22 0 35 0;
#X connect 23 0 36 0;
#X connect 24 0 18 1;
#X connect 25 0 19 1;
#X connect 26 0 20 1;
#X connect 27 0 21 1;
#X connect 28 0 22 1;
#X connect 29 0 30 0;
#X connect 30 0 31 0;
#X connect 31 0 28 0;
#X connect 31 0 27 0;
#X connect 31 0 26 0;
#X connect 31 0 25 0;
#X connect 31 0 24 0;
#X connect 32 0 37 0;
#X connect 33 0 37 0;
#X connect 34 0 37 0;
#X connect 35 0 37 0;
#X connect 36 0 37 0;
#X connect 37 0 81 0;
#X connect 39 0 44 0;
#X connect 39 0 58 0;
#X connect 39 0 69 0;
#X connect 40 0 41 0;
#X connect 40 0 41 1;
#X connect 41 0 42 0;
#X connect 41 0 42 1;
#X connect 42 0 43 0;
#X connect 42 0 43 1;
#X connect 43 0 50 1;
#X connect 43 0 52 1;
#X connect 44 0 1 0;
#X connect 44 1 45 0;
#X connect 45 0 46 0;
#X connect 46 0 40 0;
#X connect 47 0 48 0;
#X connect 48 0 49 0;
#X connect 49 0 50 0;
#X connect 50 0 51 0;
#X connect 51 0 52 0;
#X connect 52 0 23 0;
#X connect 52 0 22 0;
#X connect 52 0 21 0;
#X connect 52 0 20 0;
#X connect 52 0 19 0;
#X connect 52 0 18 0;
#X connect 56 0 60 0;
#X connect 56 0 65 0;
#X connect 58 0 59 0;
#X connect 58 1 66 0;
#X connect 59 0 56 0;
#X connect 60 0 61 0;
#X connect 61 0 64 0;
#X connect 62 0 65 1;
#X connect 63 0 62 0;
#X connect 64 0 63 0;
#X connect 65 0 67 0;
#X connect 66 0 64 1;
#X connect 66 0 62 1;
#X connect 67 0 70 0;
#X connect 68 0 69 0;
#X connect 68 0 58 0;
#X connect 68 0 44 0;
#X connect 69 0 67 0;
#X connect 70 0 71 0;
#X connect 70 0 72 0;
#X connect 70 0 73 0;
#X connect 71 0 74 0;
#X connect 72 0 74 0;
#X connect 73 0 74 0;
#X connect 74 0 75 0;
#X connect 74 0 77 0;
#X connect 75 0 76 0;
#X connect 76 0 78 0;
#X connect 76 0 79 0;
#X connect 77 0 82 0;
#X connect 78 0 82 0;
#X connect 79 0 82 0;
#X connect 81 0 38 0;
#X connect 81 0 38 1;
#X connect 82 0 80 0;
#X connect 82 0 80 1;
